<?xml version="1.0" encoding="UTF-8"?>
<svg version="1.1" xmlns="http://www.w3.org/2000/svg" width="405" height="256">
<path d="M0 0 C17.49 0 34.98 0 53 0 C55.25 7.875 55.25 7.875 54.625 11.9375 C54.51414063 12.70964844 54.40328125 13.48179688 54.2890625 14.27734375 C54.14597656 15.13005859 54.14597656 15.13005859 54 16 C52.68 16.33 51.36 16.66 50 17 C50.04125 18.19625 50.0825 19.3925 50.125 20.625 C50.37386418 27.84206121 47.00966367 32.82737003 42.875 38.375 C42.40707031 39.01566406 41.93914062 39.65632813 41.45703125 40.31640625 C40.31156443 41.88265681 39.15672686 43.44204685 38 45 C44.52452263 38.54391641 50.61338953 31.77022302 56.375 24.625 C60.52605262 19.49080334 64.91996811 14.64863067 69.421875 9.82421875 C71.26785897 7.80202722 72.95455393 5.80006794 74.640625 3.65625 C77 1 77 1 80 0.8125 C83.26426741 1.61225632 86.35840577 2.86839554 89.48828125 4.08203125 C90.64279785 4.52925537 91.79731445 4.97647949 92.98681641 5.43725586 C94.3246436 5.95791542 95.66236484 6.47884728 97 7 C97.74054626 7.28827667 98.48109253 7.57655334 99.24407959 7.87356567 C105.22684636 10.20321435 111.20731176 12.53874197 117.1875 14.875 C119.82866133 15.90656306 122.46985879 16.93802929 125.1114502 17.9684906 C126.8520821 18.64885213 128.59175634 19.33166902 130.33044434 20.01698303 C134.54834785 21.67573801 138.77302319 23.29000172 143.04296875 24.81030273 C158.09139499 30.23587052 158.09139499 30.23587052 163.625 37.3125 C164.16382813 37.93189453 164.70265625 38.55128906 165.2578125 39.18945312 C169 43.5855688 169 43.5855688 169 46 C169.99 46 170.98 46 172 46 C172.26949463 45.41283203 172.53898926 44.82566406 172.81665039 44.22070312 C173.99933325 42.00125123 175.27092549 40.34754173 176.93359375 38.46875 C177.50013672 37.82292969 178.06667969 37.17710938 178.65039062 36.51171875 C179.24013672 35.84785156 179.82988281 35.18398437 180.4375 34.5 C181.60406893 33.17814522 182.76947019 31.85525886 183.93359375 30.53125 C184.47999512 29.91765625 185.02639648 29.3040625 185.58935547 28.671875 C187.11993216 26.93928689 187.11993216 26.93928689 188.53515625 24.53125 C190 23 190 23 192.6796875 22.5546875 C196.8074284 23.1082904 200.32974906 24.49531933 204.125 26.125 C210.18415717 28.6881052 216.25601955 31.12117825 222.47087097 33.27941895 C255.57873479 44.77854991 255.57873479 44.77854991 265.61962891 59.09082031 C269.86906718 64.96818277 275.06146509 70.20028866 280 75.5 C286.90824628 82.9621585 286.90824628 82.9621585 290.125 86.5625 C290.64320313 87.14128906 291.16140625 87.72007812 291.6953125 88.31640625 C293.09224702 90.11903732 294.00763804 91.95275886 295 94 C287.68197203 94.38012371 280.36685487 94.66441548 273.04199219 94.87451172 C270.60831222 94.9749059 268.23731519 95.16309605 265.8203125 95.44140625 C259.46551497 95.79278917 256.11499747 94.35767588 251.3828125 90.21484375 C247.02017871 86.07568365 242.63171866 81.80762173 239 77 C239 76.34 239 75.68 239 75 C238.01 74.67 237.02 74.34 236 74 C234.46897888 72.44897461 234.46897888 72.44897461 232.83374023 70.46484375 C228.98777806 65.93498289 224.87508993 61.74761069 220.66015625 57.5625 C219.89319931 56.79695801 219.12624237 56.03141602 218.33604431 55.24267578 C215.91389119 52.82606803 213.48826388 50.41298274 211.0625 48 C209.40797107 46.35049314 207.75367198 44.70075571 206.09960938 43.05078125 C202.06905798 39.03118629 198.03565728 35.01446831 194 31 C185.91554334 39.05238888 178.35628108 47.43205595 171.20703125 56.3203125 C168.20807921 59.96151798 165.04173216 63.43614283 161.84765625 66.90625 C159.86054661 69.06333263 159.86054661 69.06333263 158 72 C157.34 72 156.68 72 156 72 C155.77957031 72.53882813 155.55914062 73.07765625 155.33203125 73.6328125 C153.5544585 76.79178343 151.16509972 79.26249777 148.6875 81.875 C147.73168934 82.89193052 146.77725695 83.91015826 145.82421875 84.9296875 C145.11664429 85.68016357 145.11664429 85.68016357 144.39477539 86.44580078 C142.97716335 88.0254469 141.70508021 89.67565513 140.4140625 91.359375 C138 94 138 94 135.76171875 94.5859375 C135.07722656 94.51632813 134.39273438 94.44671875 133.6875 94.375 C132.470625 94.25125 131.25375 94.1275 130 94 C132.86705308 88.77854572 136.75187127 84.82773039 140.8203125 80.5234375 C143.1687774 78.12837502 143.1687774 78.12837502 144 75 C143.38914047 74.39136108 142.77828094 73.78272217 142.14891052 73.15563965 C136.36510093 67.3919483 130.58376082 61.62579344 124.80511379 55.85692596 C121.83487173 52.89188083 118.86371591 49.92776406 115.89038086 46.96582031 C113.0157683 44.10215082 110.1436751 41.23597592 107.27324104 38.36811829 C106.18302032 37.27973138 105.09192658 36.19221817 103.99990654 35.1056366 C98.61700215 29.74845274 93.29377612 24.3956984 88.40956116 18.56994629 C86.49296305 16.43527049 84.24786206 14.77104283 82 13 C82 12.34 82 11.68 82 11 C76.39926317 15.47143294 71.93521827 20.37463908 67.484375 25.9765625 C64.77402885 29.27500262 61.9205821 32.38897516 59 35.5 C55.37004383 39.37426376 51.88247727 43.28905133 48.5625 47.4375 C43.97687705 53.15073515 39.00254458 58.45201937 33.99609375 63.79296875 C30.56907072 67.44993669 27.2592348 71.19305147 24 75 C23.01838684 76.13945877 22.03659883 77.27876692 21.0546875 78.41796875 C19.97372135 79.67427529 18.89299402 80.93078737 17.8125 82.1875 C17.30066162 82.78240234 16.78882324 83.37730469 16.26147461 83.99023438 C15.7691333 84.56451172 15.27679199 85.13878906 14.76953125 85.73046875 C14.29177246 86.28307373 13.81401367 86.83567871 13.32177734 87.4050293 C12.12746381 88.84619116 11.03848075 90.37307163 9.96484375 91.90625 C8 94 8 94 5.421875 94.48828125 C4.54015625 94.43027344 3.6584375 94.37226563 2.75 94.3125 C1.85796875 94.26738281 0.9659375 94.22226563 0.046875 94.17578125 C-0.62859375 94.11777344 -1.3040625 94.05976563 -2 94 C-0.889899 91.50227274 0.17611213 89.80935257 2.04974365 87.78108215 C4.48041788 84.31492002 4.48529228 82.39313415 4.45410156 78.19018555 C4.45468567 77.52621262 4.45526978 76.86223969 4.45587158 76.17814636 C4.45309867 73.99712698 4.42204805 71.81749747 4.390625 69.63671875 C4.3831597 68.11929572 4.37746813 66.60186302 4.37347412 65.08442688 C4.35824032 61.10083144 4.3189788 57.1178243 4.2746582 53.13446045 C4.23365632 49.0656327 4.21545267 44.9967094 4.1953125 40.92773438 C4.1524816 32.95155369 4.0842585 24.97585014 4 17 C2.68 16.67 1.36 16.34 0 16 C0 10.72 0 5.44 0 0 Z M33 50 C33 53 33 53 33 53 Z " fill="#020102" transform="translate(73,56)"/>
<path d="M0 0 C0 3.59231875 -0.65263403 4.16105077 -2.875 6.875 C-6.06871787 10.80781607 -9.17590069 14.79996388 -12.2578125 18.8203125 C-12.71615479 19.417229 -13.17449707 20.01414551 -13.64672852 20.62915039 C-14.76501548 22.08569365 -15.88258266 23.54278948 -17 25 C14.36052175 27.45632902 14.36052175 27.45632902 43.24267578 17.36303711 C52.4263537 11.69775919 60.46291846 11.70178071 71 12 C71.66 11.67 72.32 11.34 73 11 C94.67918462 9.43319932 111.78238733 11.89692952 130.81225586 22.80078125 C134.10626907 24.60640483 136.6865275 25.12410737 140.37963867 25.11352539 C141.70066841 25.11341209 141.70066841 25.11341209 143.04838562 25.11329651 C143.99534805 25.10813522 144.94231049 25.10297394 145.91796875 25.09765625 C146.89034988 25.0962413 147.86273102 25.09482635 148.86457825 25.09336853 C151.97225004 25.08776817 155.07984996 25.07521562 158.1875 25.0625 C160.29361875 25.05748505 162.39973863 25.05292213 164.50585938 25.04882812 C169.67060064 25.03779862 174.83528813 25.02053375 180 25 C178.60500921 23.26545154 177.20571598 21.53436286 175.8046875 19.8046875 C174.63655518 18.35811768 174.63655518 18.35811768 173.44482422 16.88232422 C170.4766311 13.38297452 167.28130541 10.21499399 163.9453125 7.0703125 C161.88049476 4.87281571 160.45764649 2.63109776 159 0 C162.53324825 0.57850377 164.14517694 1.79646645 166.609375 4.3515625 C167.28226563 5.03863281 167.95515625 5.72570312 168.6484375 6.43359375 C169.68871094 7.51833984 169.68871094 7.51833984 170.75 8.625 C175.4298407 13.45609031 180.15183856 18.10541143 185.25488281 22.49072266 C187.24670895 24.21336804 189.14234825 26.00874801 191 27.875 C191.5775 28.44992188 192.155 29.02484375 192.75 29.6171875 C194 31 194 31 194 32 C186.45637166 32.19432235 178.91247815 32.37155413 171.36816406 32.53710938 C168.80361926 32.59537977 166.23915907 32.65751083 163.67480469 32.72363281 C159.98127657 32.81819172 156.28766327 32.89869993 152.59375 32.9765625 C151.4538562 33.00875885 150.3139624 33.0409552 149.13952637 33.0741272 C140.47463784 33.23588923 133.90256822 32.23046147 126.11328125 28.1796875 C113.39015655 21.91502561 102.58200871 17.83633321 88.25 17.8125 C87.04384033 17.80009277 85.83768066 17.78768555 84.5949707 17.77490234 C77.56237775 18.01845104 73.54507013 19.15393967 68.60058594 24.24243164 C68.07239258 24.8224292 67.54419922 25.40242676 67 26 C62.5 29.8125 62.5 29.8125 60.46875 31.51953125 C58.76523616 32.88906545 58.76523616 32.88906545 59 35 C60.86930583 37.04535414 60.86930583 37.04535414 64 38 C70.20726173 37.05517786 76.03730711 34.23035946 81.67578125 31.57421875 C87.38750408 30.16308723 93.65358224 35.53610802 98.453125 38.24609375 C101.33387639 39.67060628 103.53430229 40.4128982 106.58203125 41.19140625 C111.24270154 42.67479497 112.91974092 44.96847907 115.24804688 49.16015625 C115.64056641 49.93230469 116.03308594 50.70445312 116.4375 51.5 C116.85708984 52.27214844 117.27667969 53.04429687 117.70898438 53.83984375 C118.48510732 55.26830608 119.24956443 56.70322041 119.99780273 58.14648438 C121.09101316 60.23639858 121.09101316 60.23639858 123 63 C122.625 66.6875 122.625 66.6875 122 70 C122.53133513 69.64564786 123.06267027 69.29129572 123.61010647 68.92620564 C129.64454404 65.20012639 134.18455431 64.29264171 141.20141602 64.43237305 C142.17808731 64.43164291 143.15475861 64.43091278 144.161026 64.43016052 C147.35923628 64.43361798 150.55595336 64.47239242 153.75390625 64.51171875 C155.98305974 64.52105341 158.21222354 64.52816643 160.44139099 64.53315735 C166.28594681 64.55217552 172.12987351 64.60123219 177.97418213 64.65667725 C183.94689424 64.70798135 189.9197088 64.73069522 195.89257812 64.75585938 C207.59532728 64.80935552 219.29761116 64.8946058 231 65 C231 65.33 231 65.66 231 66 C217.84375791 67.2619369 204.69926949 68.16574234 191.49643326 68.72387314 C189.12845793 68.82490453 186.76073607 68.93059619 184.39303589 69.03787231 C183.60052366 69.07371996 182.80801144 69.1095676 181.99148369 69.14650154 C180.3778891 69.2195601 178.76429888 69.29271495 177.15071297 69.36596489 C173.05136149 69.55001806 168.95204614 69.72227199 164.85131836 69.87280273 C160.80202451 70.02228835 156.75518873 70.20345006 152.70816612 70.40500832 C151.19267262 70.47490654 149.67661855 70.53373442 148.16022682 70.58023643 C137.87596809 70.90265849 129.24745901 72.53790535 121 79 C119.92935311 81.07558594 119.92935311 81.07558594 119.625 83.125 C119.13671875 85.15234375 119.13671875 85.15234375 118 87 C113.91731791 89.06088877 109.65779896 90.24640856 105.25439453 91.40136719 C102.88386256 92.03083918 100.53497577 92.71662268 98.18359375 93.4140625 C96.58123604 93.88194773 94.97837888 94.34812626 93.375 94.8125 C92.61759521 95.03188232 91.86019043 95.25126465 91.07983398 95.47729492 C83.30780782 97.6318902 83.30780782 97.6318902 80 97 C79.07832031 96.15050781 78.15664062 95.30101562 77.20703125 94.42578125 C75.72394781 92.99876626 75.72394781 92.99876626 74 92 C70.99321893 92.1765175 68.57907907 92.53242328 65.6875 93.1875 C55.23231462 95.01713028 47.7673375 91.55085417 39 86 C38.67 85.34 38.34 84.68 38 84 C36.00600499 83.31558175 34.00490176 82.65177708 32 82 C30.18759033 81.00842263 28.38671115 79.99553843 26.59667969 78.96411133 C19.353877 75.29696377 12.44381056 74.88100557 4.453125 74.57421875 C2.98715688 74.49791962 1.52131497 74.4191604 0.05560303 74.33808899 C-3.76749906 74.1327432 -7.59135883 73.95863532 -11.4163208 73.79205322 C-16.06136497 73.5839465 -20.70456847 73.33868153 -25.34807205 73.09904957 C-28.96043235 72.91333011 -32.57278149 72.73283924 -36.18621826 72.56925964 C-42.50644807 72.27490382 -48.73880596 71.92519877 -55 71 C-55 70.67 -55 70.34 -55 70 C-31.24 70 -7.48 70 17 70 C16.34 68.02 15.68 66.04 15 64 C15.1816134 59.31437417 17.4617097 56.80250687 20.4375 53.3125 C21.24058594 52.35988281 22.04367188 51.40726563 22.87109375 50.42578125 C24.2019208 48.90937098 25.57336047 47.42663953 27 46 C31.48706923 46.3478466 35.38178974 48.39202747 39.3828125 50.31640625 C40.07889618 50.65115463 40.77497986 50.98590302 41.49215698 51.33079529 C42.95797651 52.04084306 44.42198878 52.75463247 45.88427734 53.47192383 C47.37610056 54.19800514 48.8735718 54.91259653 50.37646484 55.61547852 C52.55852237 56.63624168 54.72119603 57.69065964 56.8828125 58.75390625 C57.55160431 59.05945938 58.22039612 59.36501251 58.90945435 59.67982483 C62.61085058 61.55631706 64.43127602 63.24114788 65.89208984 67.03637695 C66.67264674 69.56283341 67.24924303 72.08236092 67.84375 74.6640625 C69.27748773 78.80058959 71.19411419 80.54759766 74.5 83.375 C75.4796875 84.22835937 76.459375 85.08171875 77.46875 85.9609375 C79.80568566 87.99152252 79.80568566 87.99152252 82 89 C81.69707031 88.52578613 81.39414063 88.05157227 81.08203125 87.56298828 C79.71668754 85.41992379 78.35827861 83.27254862 77 81.125 C76.28457031 80.00544922 76.28457031 80.00544922 75.5546875 78.86328125 C75.10351562 78.14785156 74.65234375 77.43242187 74.1875 76.6953125 C73.55908203 75.7055542 73.55908203 75.7055542 72.91796875 74.69580078 C72 73 72 73 72 71 C73.98 70.34 75.96 69.68 78 69 C78.34780518 69.57556641 78.69561035 70.15113281 79.05395508 70.74414062 C80.6289871 73.33639722 82.22043457 75.91817302 83.8125 78.5 C84.35970703 79.40621094 84.90691406 80.31242187 85.47070312 81.24609375 C86.26831055 82.53193359 86.26831055 82.53193359 87.08203125 83.84375 C87.56905518 84.63974609 88.0560791 85.43574219 88.55786133 86.25585938 C89.03376709 86.83142578 89.50967285 87.40699219 90 88 C90.99 88 91.98 88 93 88 C92.55950014 78.52214822 90.91788011 72.576611 85.01196289 65.26489258 C81.95851684 61.42608125 81.95851684 61.42608125 82.23046875 58.6328125 C82.48441406 58.09398437 82.73835937 57.55515625 83 57 C84.32 56.67 85.64 56.34 87 56 C99.18753335 71.74746577 99.18753335 71.74746577 99.0625 81.25 C99.05347656 82.14203125 99.04445312 83.0340625 99.03515625 83.953125 C99.01775391 84.96632812 99.01775391 84.96632812 99 86 C101.475 85.01 101.475 85.01 104 84 C104.41829513 71.56826868 101.41010102 63.25500957 94.81030273 52.76074219 C94 51 94 51 94 47 C94.99 46.01 94.99 46.01 96 45 C92.17370396 42.12474864 88.66634923 40.15331692 84 39 C80.08910809 39.58623226 76.56151879 41.04807296 72.96508789 42.64892578 C68.53231577 44.61870024 65.82548309 45.58699043 61 44 C58.60502522 42.70976871 56.38837691 41.41996067 54.125 39.9375 C53.23554688 39.37192383 53.23554688 39.37192383 52.328125 38.79492188 C50.87972678 37.87215204 49.43903969 36.93729737 48 36 C50.83962701 29.62133045 56.5274725 25.14585416 62 21 C52.1553144 19.4982683 45.29118248 23.25541162 36.9753418 27.92504883 C36.323479 28.27978271 35.67161621 28.6345166 35 29 C33.642519 29.76521973 33.642519 29.76521973 32.25761414 30.54589844 C28.80531395 32.08690203 26.65150239 32.36470924 22.90283203 32.34057617 C21.72206085 32.34034958 20.54128967 32.34012299 19.32473755 32.33988953 C17.43535965 32.31666374 17.43535965 32.31666374 15.5078125 32.29296875 C14.20673553 32.28872391 12.90565857 32.28447906 11.56515503 32.28010559 C8.12254237 32.26870479 4.68031533 32.23927974 1.237854 32.20599365 C-2.28148178 32.17518917 -5.80088047 32.1615782 -9.3203125 32.14648438 C-16.21369909 32.11440462 -23.10683098 32.06326684 -30 32 C-23.78674585 23.52271932 -23.78674585 23.52271932 -20.37890625 20.21875 C-19.75653076 19.60789551 -19.13415527 18.99704102 -18.49291992 18.36767578 C-17.85588135 17.75134277 -17.21884277 17.13500977 -16.5625 16.5 C-11.90375164 11.92814528 -7.35720246 7.362277 -3.19921875 2.3203125 C-2 1 -2 1 0 0 Z M100 46 C101.61374891 51.60065798 103.61474237 56.12438722 106.625 61.125 C110.73883024 68.44328748 111.07993505 74.74385087 111 83 C111.99 82.505 111.99 82.505 113 82 C113.96153587 78.9080994 113.96153587 78.9080994 114.6875 75.25 C115.09548828 73.40148437 115.09548828 73.40148437 115.51171875 71.515625 C116.3763647 65.29017414 114.37065041 61.24456206 111.375 55.875 C111.05660156 55.25496094 110.73820313 54.63492188 110.41015625 53.99609375 C107.65890275 49.05658457 105.15026294 47.70844073 100 46 Z M29 53 C24.08082712 57.37875349 24.08082712 57.37875349 21.6875 63.2421875 C22.07886248 66.58099868 22.60063408 68.60063408 25 71 C24.896875 69.824375 24.79375 68.64875 24.6875 67.4375 C24.64034934 63.005338 26.14185532 60.80834393 29.00390625 57.54296875 C29.33261719 57.03378906 29.66132813 56.52460938 30 56 C29.67 55.01 29.34 54.02 29 53 Z M37 57 C34.50484743 59.4599103 32.51943978 61.8279228 31 65 C31.06069137 68.85895977 31.87683643 72.3192712 33 76 C34.32 76.33 35.64 76.66 37 77 C37.02578125 76.26394531 37.0515625 75.52789062 37.078125 74.76953125 C37.41855517 68.91258492 37.67833291 65.32166709 42 61 C42 60.34 42 59.68 42 59 C39.525 58.01 39.525 58.01 37 57 Z M48 63 C45.5543241 64.65083123 44.42418175 65.47145275 43 68 C42.55105172 72.36272089 42.71202617 76.62919727 43 81 C44.98 81.66 46.96 82.32 49 83 C49 77.72 49 72.44 49 67 C50.32 66.34 51.64 65.68 53 65 C50.525 64.01 50.525 64.01 48 63 Z M55 72 C54.47692346 75.39188571 54.47692346 75.39188571 54.6875 79.125 C54.71199219 80.38570312 54.73648438 81.64640625 54.76171875 82.9453125 C54.65723833 85.87389644 54.65723833 85.87389644 56 87 C60.23314767 87.23961213 63.36736489 87.32488647 67 85 C66.37609375 84.46890625 65.7521875 83.9378125 65.109375 83.390625 C62.59432788 80.54023827 62.05205039 78.43943179 61.25 74.75 C61.00765625 73.67234375 60.7653125 72.5946875 60.515625 71.484375 C60.34546875 70.66453125 60.1753125 69.8446875 60 69 C57.70024777 69 56.53802851 70.47118124 55 72 Z " fill="#040404" transform="translate(125,141)"/>
<path d="M0 0 C3.62060749 0.55868402 5.00564611 1.76131979 7.29296875 4.5703125 C10.8354412 8.80618501 14.53071885 12.8524165 18.3125 16.875 C19.29089844 17.91817383 19.29089844 17.91817383 20.2890625 18.98242188 C24.72810421 23.69726203 29.26187859 28.29137607 33.87109375 32.83984375 C36.44182286 35.44830833 38.81672108 38.19004571 41.1953125 40.97265625 C44.61943288 44.81923304 48.3225033 48.39755425 52 52 C51.67 52.66 51.34 53.32 51 54 C45.43693768 49.61736174 39.95682148 45.1503588 34.5625 40.5625 C29.65568317 36.38958729 24.71611464 32.26432059 19.703125 28.21875 C17.78965279 26.64815431 15.9068343 25.03986504 14.046875 23.40625 C13.08265625 22.5709375 12.1184375 21.735625 11.125 20.875 C10.26132813 20.10929687 9.39765625 19.34359375 8.5078125 18.5546875 C6.10996397 16.76187959 6.10996397 16.76187959 3.3046875 17.0078125 C0.42554682 18.24730696 0.19415066 19.17469035 -1 22 C-2.18263997 23.29410718 -3.41706632 24.54196483 -4.6875 25.75 C-7.96738976 28.94759862 -11.01708742 32.24168397 -14 35.71484375 C-17.02005782 39.16549575 -20.14347123 42.52063743 -23.26879883 45.87597656 C-25.39551624 48.17517132 -27.25751126 50.38626689 -29 53 C-29.66 53 -30.32 53 -31 53 C-31.26425781 53.59296875 -31.52851562 54.1859375 -31.80078125 54.796875 C-33.04370425 57.08029054 -34.30401646 58.47426723 -36.1875 60.25 C-38.73670849 62.7202041 -41.12819493 65.24154523 -43.4375 67.9375 C-45.85617779 70.74576347 -48.35899683 73.39970593 -51 76 C-53.62040609 78.58009215 -56.10323412 81.21103607 -58.5 84 C-61.5128063 87.50581097 -64.72303184 90.7428298 -68.015625 93.984375 C-70.58986703 96.59915628 -72.98168182 99.34741262 -75.359375 102.140625 C-77.15307514 104.17348516 -79.08298661 106.08298661 -81 108 C-44.37 108.495 -44.37 108.495 -7 109 C-9.16825609 113.33651219 -11.18842792 116.93919067 -15 120 C-18.09196009 120.95901051 -21.00159983 120.89013648 -24.21826172 120.79467773 C-25.12621994 120.79569992 -26.03417816 120.79672211 -26.96965027 120.79777527 C-29.95753923 120.79291545 -32.94233553 120.73855155 -35.9296875 120.68359375 C-38.00617809 120.67053181 -40.0826903 120.66057046 -42.15921021 120.65357971 C-47.61450155 120.62690126 -53.06848031 120.55817951 -58.52325439 120.48065186 C-64.09344731 120.40893873 -69.66385313 120.3770509 -75.234375 120.34179688 C-86.1568255 120.26680933 -97.07830344 120.14739692 -108 120 C-106.60194671 117.09873022 -105.21756587 114.94375398 -102.98828125 112.609375 C-102.10390381 111.67460327 -102.10390381 111.67460327 -101.20166016 110.72094727 C-100.5782373 110.07053467 -99.95481445 109.42012207 -99.3125 108.75 C-98.03419874 107.40064603 -96.75684352 106.05039517 -95.48046875 104.69921875 C-94.5685376 103.73508057 -94.5685376 103.73508057 -93.63818359 102.75146484 C-91.74866439 100.7312844 -89.92405585 98.6634953 -88.125 96.5625 C-85.23502499 93.20054414 -82.12656212 90.10923039 -78.96875 87 C-76.4424189 84.4335684 -74.11789667 81.71994747 -71.7734375 78.98828125 C-69.96641844 76.96235019 -68.07294161 75.07769631 -66.125 73.1875 C-62.12274093 69.25491275 -58.67000664 64.97231959 -55.16015625 60.6015625 C-52.80847877 57.76934333 -50.30570107 55.21345264 -47.6640625 52.65625 C-45.30996764 50.31320722 -43.17289339 47.80256437 -41.00390625 45.2890625 C-38.60630293 42.55027976 -36.15137652 39.86646328 -33.6875 37.1875 C-33.22327637 36.68210693 -32.75905273 36.17671387 -32.28076172 35.65600586 C-30.36974691 33.57613976 -28.45781099 31.49712652 -26.54443359 29.41943359 C-25.15248437 27.90656852 -23.76347277 26.39105532 -22.375 24.875 C-21.55773437 23.98554687 -20.74046875 23.09609375 -19.8984375 22.1796875 C-17.97067887 20.14986358 -17.97067887 20.14986358 -17 18 C-16.34 18 -15.68 18 -15 18 C-14.73268066 17.4112207 -14.46536133 16.82244141 -14.18994141 16.21582031 C-12.98357913 13.96942228 -11.7065935 12.39521664 -9.9609375 10.546875 C-9.38085938 9.928125 -8.80078125 9.309375 -8.203125 8.671875 C-7.59984375 8.03765625 -6.9965625 7.4034375 -6.375 6.75 C-5.76398438 6.1003125 -5.15296875 5.450625 -4.5234375 4.78125 C-3.01971926 3.18354937 -1.51184263 1.59000851 0 0 Z " fill="#030303" transform="translate(153,78)"/>
<path d="M0 0 C5.86681718 4.82918358 11.22395373 10.10464036 16.57018852 15.49502373 C18.15413865 17.09190849 19.74134093 18.68549864 21.32936096 20.27833557 C25.27124059 24.23348154 29.20763189 28.194075 33.14416504 32.15454102 C36.47931898 35.50955133 39.81659994 38.86241926 43.15663338 42.2125721 C44.70730493 43.76964481 46.25489178 45.32973706 47.80235291 46.88999939 C52.51050833 51.62227859 57.25661277 56.24873455 62.34809875 60.570755 C64.95928641 62.82998624 67.33658946 65.28078806 69.75 67.75 C73.34962465 71.44478077 73.34962465 71.44478077 77.328125 74.703125 C77.87984375 75.13109375 78.4315625 75.5590625 79 76 C79 76.66 79 77.32 79 78 C79.57073242 78.24548584 80.14146484 78.49097168 80.72949219 78.74389648 C83.38788295 80.21458686 85.18630511 81.94383276 87.328125 84.09765625 C88.12734375 84.89880859 88.9265625 85.69996094 89.75 86.52539062 C90.575 87.36263672 91.4 88.19988281 92.25 89.0625 C93.09046875 89.90361328 93.9309375 90.74472656 94.796875 91.61132812 C101 97.85976816 101 97.85976816 101 99 C95.32771413 100.20195185 89.76222323 100.15487404 83.9934082 100.16113281 C82.89519745 100.16609772 81.79698669 100.17106262 80.66549683 100.17617798 C77.04391855 100.19074792 73.42238398 100.19759057 69.80078125 100.203125 C67.28305561 100.20887769 64.76532999 100.2146354 62.24760437 100.22039795 C57.64905632 100.22955169 53.05052079 100.23586006 48.45196468 100.2388947 C41.6850367 100.24338564 34.91830968 100.26099271 28.15144283 100.2898953 C22.28347707 100.31408847 16.41557867 100.32183733 10.54756737 100.32357025 C8.05201303 100.32660395 5.55645969 100.33465644 3.06093788 100.34775543 C-0.42006271 100.36473328 -3.90056708 100.36295658 -7.3815918 100.35644531 C-8.41801315 100.3656601 -9.45443451 100.37487488 -10.52226257 100.3843689 C-11.46851501 100.37879974 -12.41476746 100.37323059 -13.38969421 100.36749268 C-14.62380806 100.36969252 -14.62380806 100.36969252 -15.88285351 100.3719368 C-18.52698465 99.90742021 -19.33806234 99.06547744 -21 97 C-24 92.44444444 -24 92.44444444 -24 90 C9 89.67 42 89.34 76 89 C76 88.34 76 87.68 76 87 C75.40172394 86.72736832 74.80344788 86.45473663 74.18704224 86.17384338 C72.05481072 85.02941836 70.69433827 83.93159396 69.00732422 82.21850586 C68.45350067 81.66130356 67.89967712 81.10410126 67.32907104 80.53001404 C66.74352448 79.93100784 66.15797791 79.33200165 65.5546875 78.71484375 C64.94360138 78.09855606 64.33251526 77.48226837 63.70291138 76.8473053 C61.75545618 74.88206676 59.81483091 72.91026236 57.875 70.9375 C55.92716399 68.96205725 53.97789254 66.98808649 52.02566528 65.01698303 C50.81202071 63.79106939 49.60105915 62.56249271 48.39303589 61.33103943 C45.4854956 58.28867973 45.4854956 58.28867973 42 56 C42 55.34 42 54.68 42 54 C41.4234668 53.75016357 40.84693359 53.50032715 40.25292969 53.24291992 C37.68536649 51.82641968 36.00010232 50.21078033 33.953125 48.11328125 C33.19 47.33919922 32.426875 46.56511719 31.640625 45.76757812 C30.85171875 44.95740234 30.0628125 44.14722656 29.25 43.3125 C24.28060338 38.23129196 19.292486 33.29721959 13.89746094 28.66821289 C10.79259304 25.93846992 7.9000793 23.00651989 5 20.0625 C4.41605469 19.47404297 3.83210938 18.88558594 3.23046875 18.27929688 C1.81795195 16.85520207 0.4086219 15.4279475 -1 14 C-5.336932 15.39428897 -7.6973368 17.40122929 -10.8125 20.6875 C-14.4081176 24.39481578 -18.0526749 27.90287993 -21.97265625 31.26171875 C-24.34074449 33.2921605 -26.67077065 35.36263267 -29 37.4375 C-30.1446875 38.45650391 -30.1446875 38.45650391 -31.3125 39.49609375 C-31.869375 39.99238281 -32.42625 40.48867187 -33 41 C-33.66 40.67 -34.32 40.34 -35 40 C-29.90693545 33.61166224 -24.66491742 27.4713322 -19.09960938 21.49658203 C-15.2083548 17.292881 -11.60666425 12.8887455 -8.015625 8.42578125 C-5.50955304 5.40975279 -2.84294339 2.69715142 0 0 Z " fill="#030303" transform="translate(266,97)"/>
<path d="M0 0 C5.10234441 0.89647102 7.71231939 4.19793858 11.25 7.75 C11.8996875 8.37132812 12.549375 8.99265625 13.21875 9.6328125 C17.89906622 14.29346352 17.89906622 14.29346352 18.421875 17.953125 C18.28265625 18.62859375 18.1434375 19.3040625 18 20 C17.28070313 19.278125 16.56140625 18.55625 15.8203125 17.8125 C14.03393833 16.03107423 12.23815354 14.25899433 10.4296875 12.5 C9.58664062 11.675 8.74359375 10.85 7.875 10 C7.02679688 9.175 6.17859375 8.35 5.3046875 7.5 C3.1132302 5.12282598 1.54549535 2.82835751 0 0 Z " fill="#080808" transform="translate(284,141)"/>
<path d="M0 0 C3.25666272 0.56149357 4.95623323 1.37229986 7 4 C7.6875 6.1875 7.6875 6.1875 8 8 C3.79373966 6.49776416 2.26099979 3.71449966 0 0 Z " fill="#0E0E0E" transform="translate(284,141)"/>
<path d="M0 0 C0.66 0.66 1.32 1.32 2 2 C-2.625 6.875 -2.625 6.875 -6 8 C-4.55746343 4.63408134 -2.66735273 2.48952921 0 0 Z " fill="#131313" transform="translate(95,120)"/>
<path d="M0 0 C-0.33 0.99 -0.66 1.98 -1 3 C-4.3 3 -7.6 3 -11 3 C-7.97062848 -0.02937152 -4.18236037 0 0 0 Z " fill="#0C0C0C" transform="translate(309,166)"/>
<path d="M0 0 C0.66 0.66 1.32 1.32 2 2 C1.67 2.66 1.34 3.32 1 4 C0.34 4 -0.32 4 -1 4 C-1 4.66 -1 5.32 -1 6 C-1.66 6 -2.32 6 -3 6 C-3.33 6.99 -3.66 7.98 -4 9 C-4.66 8.34 -5.32 7.68 -6 7 C-4.02 4.69 -2.04 2.38 0 0 Z " fill="#090909" transform="translate(109,104)"/>
<path d="M0 0 C0.66 0.66 1.32 1.32 2 2 C0.35 3.98 -1.3 5.96 -3 8 C-3.66 7.34 -4.32 6.68 -5 6 C-3.35 4.02 -1.7 2.04 0 0 Z " fill="#0C0C0D" transform="translate(116,96)"/>
<path d="M0 0 C1.32 0 2.64 0 4 0 C4 0.66 4 1.32 4 2 C2.03852126 3.38938077 0.03833424 4.7260411 -2 6 C-1.49396008 3.83125748 -1.00016187 2.00032373 0 0 Z " fill="#070707" transform="translate(263,79)"/>
<path d="" fill="#FFFFFF" transform="translate(0,0)"/>
<path d="" fill="#FFFFFF" transform="translate(0,0)"/>
<path d="" fill="#FFFFFF" transform="translate(0,0)"/>
<path d="" fill="#FFFFFF" transform="translate(0,0)"/>
<path d="" fill="#FFFFFF" transform="translate(0,0)"/>
<path d="" fill="#FFFFFF" transform="translate(0,0)"/>
<path d="" fill="#FFFFFF" transform="translate(0,0)"/>
<path d="" fill="#FFFFFF" transform="translate(0,0)"/>
<path d="" fill="#FFFFFF" transform="translate(0,0)"/>
<path d="" fill="#FFFFFF" transform="translate(0,0)"/>
<path d="" fill="#FFFFFF" transform="translate(0,0)"/>
<path d="" fill="#FFFFFF" transform="translate(0,0)"/>
<path d="" fill="#FFFFFF" transform="translate(0,0)"/>
<path d="" fill="#FFFFFF" transform="translate(0,0)"/>
<path d="" fill="#FFFFFF" transform="translate(0,0)"/>
<path d="" fill="#FFFFFF" transform="translate(0,0)"/>
<path d="" fill="#FFFFFF" transform="translate(0,0)"/>
<path d="" fill="#FFFFFF" transform="translate(0,0)"/>
<path d="" fill="#FFFFFF" transform="translate(0,0)"/>
<path d="" fill="#FFFFFF" transform="translate(0,0)"/>
<path d="" fill="#FFFFFF" transform="translate(0,0)"/>
<path d="" fill="#FFFFFF" transform="translate(0,0)"/>
<path d="" fill="#FFFFFF" transform="translate(0,0)"/>
<path d="" fill="#FFFFFF" transform="translate(0,0)"/>
<path d="" fill="#FFFFFF" transform="translate(0,0)"/>
<path d="" fill="#FFFFFF" transform="translate(0,0)"/>
<path d="" fill="#FFFFFF" transform="translate(0,0)"/>
<path d="" fill="#FFFFFF" transform="translate(0,0)"/>
<path d="" fill="#FFFFFF" transform="translate(0,0)"/>
<path d="" fill="#FFFFFF" transform="translate(0,0)"/>
<path d="" fill="#FFFFFF" transform="translate(0,0)"/>
<path d="" fill="#FFFFFF" transform="translate(0,0)"/>
<path d="" fill="#FFFFFF" transform="translate(0,0)"/>
<path d="" fill="#FFFFFF" transform="translate(0,0)"/>
<path d="" fill="#FFFFFF" transform="translate(0,0)"/>
<path d="" fill="#FFFFFF" transform="translate(0,0)"/>
</svg>
